<svg width="137" height="40" viewBox="0 0 137 40" fill="none" xmlns="http://www.w3.org/2000/svg">
    <g clip-path="url(#clip0_209_2238)">
        <path d="M15.8038 31.0001H9.22588V6.02206H0.0258789V0.180054H25.0038V6.02206H15.8038V31.0001ZM33.3262 31.0001H26.7482V8.46005H33.3262V15.5441C34.0622 11.7721 36.2702 8.00005 40.5942 8.00005C43.9062 8.00005 45.7462 10.1161 45.7462 13.6581C45.7462 16.0961 45.0102 18.0281 44.4582 18.9021H38.1102C38.9382 18.0741 39.7202 16.4641 39.7202 15.1761C39.7202 13.8881 39.1222 12.9221 37.6962 12.9221C35.4422 12.9221 33.3262 15.3601 33.3262 19.0861V31.0001ZM55.0235 5.79205H48.4455V0.180054H55.0235V5.79205ZM55.0235 31.0001H48.4455V8.46005H55.0235V31.0001ZM66.254 31.0001H59.676V8.46005H66.254V14.9921C66.99 11.3121 69.152 8.00005 73.798 8.00005C78.076 8.00005 80.698 10.6221 80.698 15.2681V31.0001H74.12V17.5681C74.12 14.8081 73.384 13.1061 70.394 13.1061C67.266 13.1061 66.254 14.8541 66.254 18.5341V31.0001ZM91.7696 5.79205H85.1916V0.180054H91.7696V5.79205ZM91.7696 31.0001H85.1916V8.46005H91.7696V31.0001ZM105.346 31.4601C100.378 31.4601 98.0321 28.5161 98.0321 24.3301V13.4741H94.6741V8.46005H98.0321V5.79205L104.61 2.34206V8.46005H110.866V13.4741H104.61V23.1341C104.61 24.9741 105.53 25.6181 106.818 25.6181C108.244 25.6181 109.486 24.4681 110.176 23.2261L112.062 28.6081C111.096 29.8501 108.796 31.4601 105.346 31.4601ZM119.511 39.2801C116.107 39.2801 113.209 37.8081 111.645 36.1981L114.267 30.6781C115.693 32.3341 117.349 33.4841 119.327 33.4841C121.075 33.4841 122.087 32.8861 122.823 30.7241L123.283 29.5281H119.281L111.967 8.46005H119.235L122.455 19.0861L124.111 26.6301L125.813 19.0861L128.987 8.46005H136.393L128.297 32.3801C126.549 37.3941 123.743 39.2801 119.511 39.2801Z"
              fill="#4A6741"/>
    </g>
    <defs>
        <clipPath id="clip0_209_2238">
            <rect width="137" height="40" fill="white"/>
        </clipPath>
    </defs>
</svg>
