<svg width="300" height="210" viewBox="0 0 300 210" fill="none" xmlns="http://www.w3.org/2000/svg">
<g clip-path="url(#clip0_578_4316)">
<path d="M264.93 204.721L259.911 204.721L257.523 185.358L264.931 185.359L264.93 204.721Z" fill="#FFB8B8"/>
<path d="M266.21 209.586L250.026 209.586V209.381C250.026 207.71 250.69 206.108 251.871 204.926C253.053 203.745 254.655 203.081 256.325 203.081H256.326L266.21 203.081L266.21 209.586Z" fill="#2F2E41"/>
<path d="M287.081 192.379L283.823 196.198L267.547 185.446L272.355 179.811L287.081 192.379Z" fill="#FFB8B8"/>
<path d="M291.613 194.564L281.108 206.877L280.952 206.744C279.682 205.66 278.894 204.115 278.762 202.449C278.63 200.783 279.165 199.133 280.249 197.862L280.25 197.862L286.666 190.342L291.613 194.564Z" fill="#2F2E41"/>
<path d="M229.293 109.499L227.73 123.91L290.886 123.009L263.344 78.1224L240.856 77.3145L229.293 109.499Z" fill="#2F2E41"/>
<path opacity="0.28" d="M229.293 109.499L227.73 123.91L290.886 123.009L263.344 78.1224L240.856 77.3145L229.293 109.499Z" fill="black"/>
<path d="M241.712 111.972L239.482 125.158V136.945L257.459 142.814C257.459 142.814 255.355 188.594 258.16 191.51L258.091 198.549L265.934 198.906L265.998 193.952L269.322 156.924L271.281 129.738L268.106 109.126L241.712 111.972Z" fill="#2F2E41"/>
<path d="M255.639 123.323L239.482 136.945C239.482 136.945 238.537 161.522 240.938 164.404C243.001 166.88 269.826 188.232 269.826 188.232C269.826 188.232 274.593 192.606 277.265 192.676C279.937 192.745 283.044 187.141 283.044 187.141L276.856 182.438C276.856 182.438 260.826 167.473 256.067 161.522C254.146 159.12 254.146 158.88 254.146 158.88L254.802 148.892L261.405 130.355L255.639 123.323Z" fill="#2F2E41"/>
<path d="M238.486 58.0746L231.52 57.4307L225.201 58.4839L211.821 58.4882L210.681 68.1874L222.891 70.9202L225.867 69.4616L238.27 74.1882L238.486 58.0746Z" fill="#2F2E41"/>
<path d="M246.806 58.0438C246.806 58.0438 261.59 56.6582 264.952 59.3002C268.314 61.9422 275.518 114.302 275.518 114.302L246.806 115.923L241.659 112.38L243.12 86.2404L246.806 58.0438Z" fill="#CCCCCC"/>
<path d="M251.319 57.7178L235.011 58.0757L219.806 126.791L231.813 129.434L251.319 57.7178Z" fill="#2F2E41"/>
<path d="M262.911 57.1367L275.757 61.1581L275.028 89.3912L290.886 123.146L272.243 125.11L257.507 88.6613L262.911 57.1367Z" fill="#2F2E41"/>
<path d="M284.095 126.575C284.545 126.179 284.903 125.688 285.143 125.139C285.384 124.589 285.5 123.993 285.486 123.393C285.471 122.793 285.325 122.204 285.057 121.666C284.79 121.129 284.408 120.657 283.939 120.283L286.523 111.266L281.428 108.358L277.957 121.144C277.381 121.974 277.13 122.987 277.251 123.99C277.372 124.993 277.857 125.917 278.614 126.586C279.37 127.256 280.346 127.624 281.356 127.622C282.366 127.62 283.341 127.248 284.095 126.575Z" fill="#FFB8B8"/>
<path d="M268.313 61.9426L275.915 61.2832C275.915 61.2832 282.738 68.4217 284.291 73.9488C285.843 79.4759 287.524 96.769 287.524 96.769L286.823 122.067L277.938 116.032L277.342 94.2726L268.313 61.9426Z" fill="#2F2E41"/>
<path d="M266.48 49.227C269.334 44.0044 267.415 37.4564 262.194 34.6015C256.972 31.7466 250.425 33.666 247.571 38.8885C244.717 44.111 246.636 50.6591 251.857 53.514C257.079 56.3689 263.626 54.4495 266.48 49.227Z" fill="#FFB8B8"/>
<path d="M255.824 39.559C254.41 39.2322 252.943 39.5943 251.511 39.829C250.079 40.0637 248.501 40.1411 247.29 39.342C246.396 38.7519 245.846 37.7757 245.329 36.8366C245.114 36.5012 244.97 36.1248 244.907 35.7311C244.847 35.0366 245.288 34.403 245.757 33.8873C247.936 31.4919 251.12 30.1808 254.331 29.7644C256.979 29.3697 259.684 29.7001 262.159 30.7205C264.597 31.7898 266.692 33.7478 267.65 36.2313C268.091 37.5023 268.367 38.825 268.47 40.1666C268.615 41.1536 268.634 42.1551 268.525 43.1469C268.396 43.8821 268.203 44.6046 267.948 45.3061L266.361 50.1001C266.247 50.5531 266.033 50.9751 265.736 51.3358C265.584 51.5125 265.378 51.6349 265.15 51.6849C264.922 51.7348 264.684 51.7096 264.472 51.6129C264.599 51.0922 264.618 50.551 264.529 50.0226C264.479 49.7592 264.352 49.5167 264.163 49.3264C263.974 49.1361 263.733 49.0067 263.47 48.9548C262.885 48.8927 262.385 49.3463 261.83 49.5417C261.576 49.617 261.31 49.6415 261.046 49.6139C260.783 49.5862 260.528 49.5069 260.295 49.3805C260.062 49.2542 259.856 49.0831 259.689 48.8772C259.523 48.6713 259.398 48.4346 259.323 48.1805C259.308 48.1293 259.294 48.0776 259.283 48.0253C259.196 47.4772 259.343 46.8904 259.135 46.3758C258.892 45.7727 258.246 45.4568 257.762 45.0234C257.319 44.6151 257.003 44.089 256.849 43.5068C256.695 42.9247 256.711 42.3108 256.894 41.7373C257.024 41.3384 257.391 41.157 257.317 40.6986C257.221 40.0973 256.335 39.6769 255.824 39.559Z" fill="#2F2E41"/>
<path d="M136.032 85.1142H0V0H136.032V85.1142Z" fill="white"/>
<path d="M136.032 85.1142H0V0H136.032V85.1142ZM0.621154 84.493H135.411V0.621273H0.621154V84.493Z" fill="#3F3D56"/>
<path d="M119.417 203.001H41.7725V117.887H119.417V203.001Z" fill="white"/>
<path d="M119.417 203.001H41.7725V117.887H119.417V203.001ZM42.3936 202.38H118.795V118.508H42.3936V202.38Z" fill="#3F3D56"/>
<path d="M108.857 194.962H92.707V195.617H108.857V194.962Z" fill="#3F3D56"/>
<path d="M108.857 196.927H92.707V197.582H108.857V196.927Z" fill="#3F3D56"/>
<path d="M108.857 198.891H92.707V199.545H108.857V198.891Z" fill="#3F3D56"/>
<path d="M80.5947 133.107V139.941C84.6489 139.941 88.6119 141.144 91.9828 143.397C95.3537 145.649 97.981 148.851 99.5324 152.598C101.084 156.344 101.49 160.466 100.699 164.443C99.908 168.42 97.9557 172.073 95.089 174.94L99.9205 179.773C103.743 175.95 106.346 171.079 107.4 165.776C108.455 160.474 107.914 154.977 105.845 149.982C103.776 144.987 100.273 140.718 95.7789 137.714C91.2843 134.711 86.0002 133.107 80.5947 133.107Z" fill="#C7522A"/>
<path d="M99.9205 179.773L95.0891 174.94C91.5846 178.446 86.9284 180.563 81.9832 180.898C77.0379 181.234 72.1387 179.765 68.1932 176.764L64.0576 182.207C69.3193 186.207 75.8518 188.164 82.4455 187.717C89.0392 187.269 95.2474 184.447 99.9205 179.773Z" fill="#575A89"/>
<path d="M60.0964 160.443C60.0964 157.751 60.6265 155.085 61.6567 152.598C62.6868 150.11 64.1967 147.85 66.1001 145.946C68.0035 144.042 70.2632 142.532 72.7501 141.502C75.2371 140.472 77.9026 139.941 80.5944 139.941V133.107C74.873 133.107 69.2959 134.903 64.6491 138.242C60.0024 141.58 56.5203 146.293 54.6938 151.716C52.8673 157.139 52.7884 162.999 54.4683 168.469C56.1481 173.939 59.502 178.744 64.0572 182.207L68.1928 176.764C65.6748 174.854 63.6333 172.386 62.2286 169.555C60.8239 166.723 60.0941 163.604 60.0964 160.443Z" fill="#4A6741"/>
<path d="M234.33 150.193H156.686V65.0781H234.33V150.193Z" fill="white"/>
<path d="M234.33 150.193H156.686V65.0781H234.33V150.193ZM157.307 149.571H233.708V65.6994H157.307V149.571Z" fill="#3F3D56"/>
<path d="M181.842 117.109H167.866V139.475H181.842V117.109Z" fill="#575A89"/>
<path d="M202.03 101.889H188.054V139.476H202.03V101.889Z" fill="#C7522A"/>
<path d="M222.217 84.1826H208.241V139.476H222.217V84.1826Z" fill="#4A6741"/>
<path d="M226.876 140.097H164.14V75.1738H164.761V139.476H226.876V140.097Z" fill="#3F3D56"/>
<path d="M211.75 67.344C214.113 67.344 216.028 65.4285 216.028 63.0655C216.028 60.7026 214.113 58.7871 211.75 58.7871C209.388 58.7871 207.473 60.7026 207.473 63.0655C207.473 65.4285 209.388 67.344 211.75 67.344Z" fill="#FFB8B8"/>
<path d="M299.643 210H232.984C232.889 210 232.799 209.963 232.732 209.896C232.665 209.829 232.627 209.738 232.627 209.644C232.627 209.549 232.665 209.458 232.732 209.392C232.799 209.325 232.889 209.287 232.984 209.287H299.643C299.738 209.287 299.829 209.325 299.895 209.392C299.962 209.458 300 209.549 300 209.644C300 209.738 299.962 209.829 299.895 209.896C299.829 209.963 299.738 210 299.643 210Z" fill="#CCCCCC"/>
<path d="M117.141 67.3135H18.8915C18.8099 67.3135 18.7317 67.2811 18.674 67.2235C18.6164 67.1658 18.584 67.0876 18.584 67.006V19.9062C18.584 19.8246 18.6164 19.7464 18.674 19.6887C18.7317 19.631 18.8099 19.5986 18.8915 19.5986C18.973 19.5986 19.0512 19.631 19.1089 19.6887C19.1665 19.7464 19.1989 19.8246 19.1989 19.9062V66.6985H117.141C117.181 66.6983 117.221 66.7062 117.259 66.7216C117.296 66.737 117.33 66.7596 117.359 66.7882C117.387 66.8167 117.41 66.8507 117.426 66.8881C117.441 66.9255 117.449 66.9655 117.449 67.006C117.449 67.0465 117.441 67.0866 117.426 67.1239C117.41 67.1613 117.387 67.1953 117.359 67.2238C117.33 67.2524 117.296 67.275 117.259 67.2904C117.221 67.3058 117.181 67.3137 117.141 67.3135Z" fill="#3F3D56"/>
<path d="M39.8831 63.9308H30.9469C30.7049 63.9305 30.4729 63.8342 30.3018 63.6631C30.1307 63.492 30.0345 63.2599 30.0342 63.0179V50.697C30.0345 50.455 30.1307 50.223 30.3018 50.0518C30.4729 49.8807 30.7049 49.7844 30.9469 49.7842H39.8831C40.125 49.7844 40.357 49.8807 40.5281 50.0518C40.6992 50.223 40.7955 50.455 40.7958 50.697V63.0179C40.7955 63.2599 40.6993 63.492 40.5281 63.6631C40.357 63.8342 40.125 63.9305 39.8831 63.9308Z" fill="#4A6741"/>
<path d="M56.1794 63.9305H47.2433C47.0013 63.9302 46.7693 63.834 46.5982 63.6628C46.4271 63.4917 46.3309 63.2597 46.3306 63.0177V39.0105C46.3309 38.7685 46.4271 38.5364 46.5982 38.3653C46.7693 38.1942 47.0013 38.0979 47.2433 38.0977H56.1794C56.4214 38.0979 56.6534 38.1942 56.8245 38.3653C56.9956 38.5364 57.0919 38.7685 57.0922 39.0105V63.0177C57.0919 63.2597 56.9956 63.4917 56.8245 63.6628C56.6534 63.834 56.4214 63.9302 56.1794 63.9305Z" fill="#4A6741"/>
<path d="M72.4753 63.9308H63.5392C63.2972 63.9305 63.0652 63.8342 62.8941 63.6631C62.723 63.492 62.6268 63.2599 62.6265 63.0179V50.697C62.6268 50.455 62.723 50.223 62.8941 50.0518C63.0652 49.8807 63.2972 49.7844 63.5392 49.7842H72.4753C72.7173 49.7844 72.9493 49.8807 73.1204 50.0518C73.2915 50.223 73.3878 50.455 73.3881 50.697V63.0179C73.3878 63.2599 73.2915 63.492 73.1204 63.6631C72.9493 63.8342 72.7173 63.9305 72.4753 63.9308Z" fill="#4A6741"/>
<path d="M88.7717 63.9304H79.8356C79.5991 63.9355 79.3703 63.8467 79.1992 63.6833C79.0281 63.52 78.9287 63.2954 78.9229 63.059V34.3561C78.9287 34.1196 79.0281 33.8951 79.1992 33.7317C79.3703 33.5684 79.5991 33.4795 79.8356 33.4846H88.7717C89.0082 33.4795 89.237 33.5684 89.4081 33.7317C89.5792 33.8951 89.6786 34.1196 89.6845 34.3561V63.059C89.6786 63.2954 89.5792 63.52 89.4081 63.6833C89.237 63.8467 89.0082 63.9355 88.7717 63.9304Z" fill="#4A6741"/>
<path d="M105.068 63.9309H96.1315C95.8895 63.9306 95.6575 63.8344 95.4864 63.6632C95.3153 63.4921 95.219 63.2601 95.2188 63.0181V26.0945C95.219 25.8525 95.3153 25.6204 95.4864 25.4493C95.6575 25.2782 95.8895 25.1819 96.1315 25.1816H105.068C105.31 25.1819 105.542 25.2782 105.713 25.4493C105.884 25.6204 105.98 25.8525 105.98 26.0945V63.0181C105.98 63.2601 105.884 63.4921 105.713 63.6632C105.542 63.8344 105.31 63.9306 105.068 63.9309Z" fill="#4A6741"/>
<path d="M35.4152 46.0937C36.434 46.0937 37.26 45.2676 37.26 44.2485C37.26 43.2294 36.434 42.4033 35.4152 42.4033C34.3963 42.4033 33.5703 43.2294 33.5703 44.2485C33.5703 45.2676 34.3963 46.0937 35.4152 46.0937Z" fill="#C7522A"/>
<path d="M51.7111 34.0996C52.7299 34.0996 53.5559 33.2735 53.5559 32.2544C53.5559 31.2353 52.7299 30.4092 51.7111 30.4092C50.6922 30.4092 49.8662 31.2353 49.8662 32.2544C49.8662 33.2735 50.6922 34.0996 51.7111 34.0996Z" fill="#C7522A"/>
<path d="M68.0074 46.0937C69.0263 46.0937 69.8523 45.2676 69.8523 44.2485C69.8523 43.2294 69.0263 42.4033 68.0074 42.4033C66.9886 42.4033 66.1626 43.2294 66.1626 44.2485C66.1626 45.2676 66.9886 46.0937 68.0074 46.0937Z" fill="#C7522A"/>
<path d="M84.3038 28.2568C85.3227 28.2568 86.1487 27.4307 86.1487 26.4116C86.1487 25.3925 85.3227 24.5664 84.3038 24.5664C83.2849 24.5664 82.459 25.3925 82.459 26.4116C82.459 27.4307 83.2849 28.2568 84.3038 28.2568Z" fill="#C7522A"/>
<path d="M100.6 21.4912C101.619 21.4912 102.445 20.6651 102.445 19.646C102.445 18.6269 101.619 17.8008 100.6 17.8008C99.5808 17.8008 98.7549 18.6269 98.7549 19.646C98.7549 20.6651 99.5808 21.4912 100.6 21.4912Z" fill="#C7522A"/>
<path d="M68.0463 44.6616L51.7115 32.4242L35.5995 44.4944L35.231 44.002L51.7115 31.6555L67.9686 43.8348L84.1241 26.1524L84.189 26.126L100.485 19.5586L100.715 20.1294L84.4834 26.6704L68.0463 44.6616Z" fill="#2D2D2D"/>
</g>
<defs>
<clipPath id="clip0_578_4316">
<rect width="300" height="210" fill="white"/>
</clipPath>
</defs>
</svg>
