<svg width="266" height="210" viewBox="0 0 266 210" fill="none" xmlns="http://www.w3.org/2000/svg">
<g clip-path="url(#clip0_578_4285)">
<path d="M140.565 29.7696C140.625 30.0346 140.664 30.304 140.682 30.5752L161.734 42.7476L166.851 39.7952L172.306 46.9528L163.755 53.0619C163.064 53.5554 162.232 53.811 161.384 53.7903C160.535 53.7696 159.717 53.4737 159.051 52.947L137.342 35.7823C136.363 36.1458 135.296 36.2017 134.284 35.9426C133.271 35.6835 132.362 35.1218 131.676 34.332C130.99 33.5422 130.56 32.5618 130.444 31.5213C130.328 30.4808 130.53 29.4295 131.025 28.5071C131.519 27.5847 132.282 26.835 133.212 26.3578C134.141 25.8805 135.194 25.6983 136.23 25.8354C137.266 25.9724 138.235 26.4223 139.009 27.1251C139.784 27.8279 140.326 28.7502 140.565 29.7696Z" fill="#FFB6B6"/>
<path d="M162.026 41.4042C162.093 41.0937 162.226 40.8013 162.416 40.5469C162.606 40.2926 162.848 40.0823 163.126 39.9303L172.846 34.6227C174.14 33.6436 175.769 33.2189 177.375 33.4418C178.982 33.6647 180.434 34.5169 181.414 35.8116C182.395 37.1063 182.822 38.7378 182.604 40.3483C182.386 41.9587 181.54 43.4168 180.25 44.4026L172.46 52.3341C172.238 52.5604 171.97 52.7361 171.674 52.8491C171.377 52.9621 171.06 53.0098 170.744 52.989C170.428 52.9681 170.12 52.8792 169.841 52.7283C169.562 52.5774 169.319 52.368 169.128 52.1144L162.421 43.2019C162.23 42.9484 162.096 42.6565 162.028 42.3462C161.96 42.036 161.959 41.7147 162.026 41.4042Z" fill="#3F3D56"/>
<path d="M179.391 10.5472C180.789 6.08032 183.969 1.98351 188.367 0.473481C192.765 -1.03655 199.205 1.26372 202.512 4.56647C208.56 10.6079 210.036 31.3622 205.881 37.9208C205.054 37.877 202.202 37.8446 201.366 37.8132L200.182 33.8601V37.7742C193.653 37.572 186.855 37.6986 180.054 37.8295C179.444 33.186 177.992 15.014 179.391 10.5472Z" fill="#2F2E41"/>
<path d="M177.52 198.041H171.564L168.731 175.018L177.521 175.018L177.52 198.041Z" fill="#FFB6B6"/>
<path d="M229.652 194.329L223.89 195.834L215.354 174.272L223.859 172.051L229.652 194.329Z" fill="#FFB6B6"/>
<path d="M196.834 56.638L198.183 60.1543L197.913 63.6706L171.504 72.8385L172.814 57.4494L175.783 53.9326L196.834 56.638Z" fill="#FFB6B6"/>
<path d="M188.484 24.9935C193.693 24.9935 197.916 20.7609 197.916 15.5397C197.916 10.3185 193.693 6.08594 188.484 6.08594C183.274 6.08594 179.051 10.3185 179.051 15.5397C179.051 20.7609 183.274 24.9935 188.484 24.9935Z" fill="#FFB7B7"/>
<path d="M182.003 3.22965C183.815 2.12225 185.891 1.52322 188.013 1.49517C190.136 1.46713 192.227 2.0111 194.068 3.07023C195.908 4.12935 197.432 5.66472 198.478 7.51579C199.524 9.36686 200.055 11.4656 200.015 13.5927C194.873 14.9098 189.394 15.4607 183.588 13.9099L182.26 10.6542L181.478 13.9123C179.701 15.1647 177.987 15.1624 176.334 13.9055C176.264 11.7845 176.751 9.68217 177.746 7.80871C178.74 5.93524 180.208 4.35628 182.003 3.22965Z" fill="#2F2E41"/>
<path d="M180.184 209.374H175.958L175.203 205.376L173.272 209.374H162.064C161.526 209.374 161.003 209.202 160.57 208.883C160.138 208.564 159.818 208.115 159.658 207.601C159.498 207.087 159.506 206.535 159.682 206.026C159.857 205.517 160.19 205.077 160.632 204.771L169.582 198.576V194.533L178.997 195.096L180.184 209.374Z" fill="#2F2E41"/>
<path d="M235.605 204.487L231.516 205.555L229.78 201.876L228.917 206.234L218.071 209.068C217.551 209.204 217.002 209.169 216.503 208.97C216.004 208.771 215.581 208.417 215.297 207.96C215.013 207.503 214.882 206.966 214.924 206.43C214.965 205.893 215.177 205.383 215.527 204.975L222.629 196.718L221.612 192.806L230.863 190.971L235.605 204.487Z" fill="#2F2E41"/>
<path d="M228.922 179.851L211.465 143.891L205.986 100.124C209.764 93.0912 202.747 78.7808 202.747 78.7808V72.7725L175.565 77.912C170.006 93.1099 167.31 109.21 167.614 125.395L168.71 183.574H168.366C167.796 183.574 167.249 183.801 166.846 184.205C166.443 184.609 166.216 185.157 166.216 185.728C166.216 186.3 166.443 186.848 166.846 187.252C167.249 187.656 167.796 187.883 168.366 187.883H179.115C179.685 187.883 180.232 187.656 180.635 187.252C181.038 186.848 181.265 186.3 181.265 185.728C181.265 185.157 181.038 184.609 180.635 184.205C180.232 183.801 179.685 183.574 179.115 183.574H178.838L186.554 109.559L195.526 146.084L217.208 179.713C216.655 179.756 216.141 180.012 215.772 180.428C215.404 180.843 215.21 181.386 215.232 181.941C215.255 182.497 215.491 183.022 215.891 183.407C216.292 183.792 216.826 184.006 217.38 184.004H228.129C228.629 184.005 229.114 183.831 229.499 183.512C229.885 183.192 230.147 182.749 230.241 182.256C230.335 181.764 230.254 181.255 230.014 180.816C229.773 180.376 229.387 180.035 228.922 179.851Z" fill="#2F2E41"/>
<path d="M205.204 82.4644C205.115 82.1128 204.917 81.7986 204.639 81.5667C204.36 81.3349 204.016 81.1974 203.654 81.1738C203.296 77.0683 200.929 50.7382 200.839 49.9658L200.835 49.9331L200.15 35.2568C200.125 34.7238 199.905 34.2187 199.532 33.8379C199.159 33.4571 198.659 33.2274 198.128 33.1926L194.507 32.9554C194.458 32.9537 194.411 32.9327 194.376 32.8969C194.342 32.8611 194.322 32.8133 194.322 32.7635C194.322 32.3627 194.243 31.9659 194.09 31.5957C193.937 31.2255 193.713 30.8891 193.43 30.6057C193.148 30.3223 192.812 30.0976 192.443 29.9442C192.073 29.7909 191.677 29.7119 191.278 29.7119H180.558C179.864 29.7122 179.194 29.9664 178.673 30.4269C178.153 30.8874 177.818 31.5225 177.731 32.2129C177.726 32.2605 177.704 32.3044 177.668 32.3361C177.633 32.3677 177.586 32.3847 177.539 32.3836L177.537 32.3836C176.319 32.3584 175.133 32.7718 174.193 33.5485C173.253 34.3253 172.622 35.414 172.414 36.6171C170.949 45.1628 168.012 64.5582 169.464 75.3409C169.969 79.0946 169.74 84.74 169.549 87.8807C169.53 88.1842 169.571 88.4885 169.669 88.7761C169.768 89.0637 169.922 89.329 170.123 89.5568C169.695 89.6804 169.332 89.9654 169.111 90.3519C168.889 90.7384 168.825 91.1961 168.933 91.6286C169.045 92.0718 169.328 92.4526 169.719 92.687C170.111 92.9214 170.579 92.9904 171.021 92.8786L203.957 84.5571C204.399 84.4454 204.779 84.1621 205.013 83.7697C205.247 83.3772 205.316 82.9077 205.204 82.4644Z" fill="#3F3D56"/>
<path d="M150.77 144.166C150.764 143.202 150.418 142.272 149.792 141.54C149.167 140.808 148.303 140.321 147.354 140.166L88.9606 130.556C88.4006 130.463 87.8275 130.488 87.278 130.631L73.5931 134.177L65.7411 136.214L51.2506 139.969C50.3759 140.196 49.6013 140.709 49.0483 141.425C48.4952 142.142 48.1951 143.022 48.1948 143.927V205.254C48.1992 206.189 48.5215 207.095 49.1086 207.821C49.6957 208.548 50.5124 209.052 51.424 209.25L110.902 208.575C111.181 208.635 111.466 208.665 111.752 208.664C112.168 208.665 112.582 208.601 112.979 208.476L148.316 209.358C149.15 209.097 149.878 208.574 150.392 207.865C150.905 207.157 151.178 206.302 151.168 205.426L150.77 144.166Z" fill="white"/>
<path d="M150.77 144.166C150.764 143.202 150.418 142.272 149.792 141.54C149.167 140.808 148.303 140.321 147.354 140.166L88.9606 130.556C88.4006 130.463 87.8275 130.488 87.278 130.631L73.5931 134.177L65.7411 136.214L51.2506 139.969C50.3759 140.196 49.6013 140.709 49.0483 141.425C48.4952 142.142 48.1951 143.022 48.1948 143.927V205.254C48.1992 206.189 48.5215 207.095 49.1086 207.821C49.6957 208.548 50.5124 209.052 51.424 209.25L110.902 208.575C111.181 208.635 111.466 208.665 111.752 208.664C112.168 208.665 112.582 208.601 112.979 208.476L148.316 209.358C149.15 209.097 149.878 208.574 150.392 207.865C150.905 207.157 151.178 206.302 151.168 205.426L150.77 144.166ZM148.01 208.383L112.673 209.226C112.169 209.383 111.633 209.409 111.116 209.301L51.6348 208.252C50.9513 208.103 50.3391 207.724 49.8991 207.179C49.4591 206.634 49.2176 205.955 49.2146 205.254V143.927C49.215 143.3 49.4075 142.687 49.7661 142.172C50.1247 141.658 50.6322 141.265 51.2201 141.049C51.3134 141.014 51.4087 140.984 51.5056 140.96L66.8356 136.988L75.9011 134.637L87.5329 131.622C87.7823 131.555 88.0395 131.522 88.2977 131.523C88.464 131.523 88.63 131.537 88.794 131.564L147.188 141.175C147.657 141.252 148.103 141.438 148.489 141.718C148.875 141.997 149.19 142.363 149.411 142.786C149.631 143.215 149.748 143.69 149.751 144.173L150.148 205.433C150.156 206.09 149.952 206.732 149.566 207.263C149.181 207.794 148.636 208.187 148.01 208.383Z" fill="#CCCCCC"/>
<path d="M149.411 142.786C149.371 142.812 149.327 142.831 149.282 142.844L132.106 147.497L126.759 148.945L111.551 153.064C111.508 153.075 111.463 153.08 111.419 153.081C111.388 153.08 111.357 153.078 111.327 153.074L50.0067 141.869L49.8027 141.832C49.6699 141.807 49.5523 141.73 49.4757 141.618C49.3992 141.507 49.3698 141.369 49.394 141.236C49.4183 141.103 49.4942 140.984 49.6052 140.907C49.7162 140.83 49.8532 140.8 49.9863 140.823L51.2202 141.048L111.398 152.045L124.505 148.495L131.837 146.509L148.748 141.927L149.016 141.856C149.132 141.825 149.256 141.836 149.364 141.887C149.473 141.938 149.56 142.026 149.611 142.135C149.624 142.161 149.635 142.188 149.642 142.217C149.67 142.324 149.662 142.437 149.621 142.54C149.579 142.642 149.505 142.729 149.411 142.786Z" fill="#CCCCCC"/>
<path d="M111.928 208.783C111.649 208.783 111.421 208.558 111.419 210L110.909 154.299C110.906 152.293 111.132 152.062 111.414 152.06H111.419C111.698 152.06 111.926 152.285 111.928 154.29L112.438 209.991C112.441 208.55 112.215 208.78 111.933 208.783H111.928Z" fill="#CCCCCC"/>
<path d="M132.25 209.429L126.759 209.487L124.505 148.496L67.0023 137.028C66.9459 137.018 66.8903 137.005 66.8357 136.987C66.394 136.861 66.0081 136.589 65.7412 136.214L73.5932 134.177L75.9012 134.637L130.464 145.515C130.751 145.571 131.022 145.69 131.259 145.861C131.496 146.033 131.693 146.254 131.837 146.509C132.007 146.806 132.247 209.075 132.25 209.429Z" fill="#CCCCCC"/>
<path d="M176.235 32.5301C176.23 31.8038 175.969 31.1025 175.498 30.5508C175.027 29.999 174.376 29.6323 173.66 29.5158L129.652 22.2727C129.23 22.2027 128.798 22.2219 128.384 22.3292L118.07 25.002L112.153 26.5374L101.232 29.3669C100.572 29.5385 99.9887 29.9245 99.5719 30.4645C99.1551 31.0044 98.9289 31.6677 98.9287 32.3504V68.5016C98.932 69.2062 99.1749 69.8886 99.6174 70.4362C100.06 70.9838 100.675 71.3637 101.362 71.5133L146.188 81.0724C146.399 81.1177 146.613 81.1401 146.829 81.1392C147.142 81.1398 147.454 81.0921 147.753 80.998L174.385 72.5687C175.014 72.3721 175.562 71.9777 175.95 71.4439C176.337 70.9102 176.542 70.2655 176.535 69.6057L176.235 32.5301Z" fill="white"/>
<path d="M129.154 24.9277C129.122 24.9277 129.09 24.9318 129.059 24.94L101.906 31.9777C101.824 31.9991 101.751 32.0473 101.699 32.1147C101.647 32.1821 101.619 32.2649 101.619 32.3501V68.5008C101.619 68.5888 101.649 68.6741 101.705 68.7426C101.76 68.811 101.837 68.8585 101.922 68.8772L146.748 78.4361C146.813 78.4497 146.881 78.4464 146.944 78.4265L173.576 69.9975C173.655 69.9729 173.723 69.9236 173.772 69.857C173.82 69.7903 173.845 69.7097 173.844 69.6274L173.546 32.5519C173.545 32.4612 173.513 32.3737 173.454 32.3048C173.395 32.2359 173.313 32.1901 173.224 32.1756L129.216 24.9327C129.195 24.9295 129.174 24.9278 129.154 24.9277Z" fill="white"/>
<path d="M176.235 32.5301C176.23 31.8038 175.969 31.1025 175.498 30.5508C175.027 29.999 174.376 29.6323 173.66 29.5158L129.652 22.2727C129.23 22.2027 128.798 22.2219 128.384 22.3292L118.07 25.002L112.153 26.5374L101.232 29.3669C100.572 29.5385 99.9887 29.9245 99.5719 30.4645C99.1551 31.0044 98.9289 31.6677 98.9287 32.3504V68.5016C98.932 69.2062 99.1749 69.8886 99.6174 70.4362C100.06 70.9838 100.675 71.3637 101.362 71.5133L146.188 81.0724C146.399 81.1177 146.613 81.1401 146.829 81.1392C147.142 81.1398 147.454 81.0921 147.753 80.998L174.385 72.5687C175.014 72.3721 175.562 71.9777 175.95 71.4439C176.337 70.9102 176.542 70.2655 176.535 69.6057L176.235 32.5301ZM174.155 71.8343L147.523 80.2636C147.143 80.3822 146.739 80.4017 146.35 80.3201L101.521 70.7611C101.006 70.6485 100.545 70.3633 100.213 69.9526C99.8815 69.5418 99.6996 69.03 99.6972 68.5016V32.3504C99.6976 31.8773 99.8427 31.4156 100.113 31.0276C100.383 30.6397 100.766 30.3441 101.209 30.1808C101.279 30.1543 101.351 30.132 101.424 30.114L112.977 27.1203L119.81 25.3487L128.576 23.0764C128.764 23.0261 128.958 23.001 129.152 23.0019C129.278 23.0019 129.403 23.0122 129.526 23.0327L173.535 30.2758C173.889 30.3341 174.225 30.4741 174.516 30.6849C174.806 30.8957 175.044 31.1714 175.21 31.4903C175.377 31.8136 175.464 32.1716 175.467 32.5353L175.766 69.6109C175.772 70.1058 175.618 70.5894 175.328 70.9899C175.038 71.3904 174.626 71.6865 174.155 71.8343Z" fill="#3F3D56"/>
<path d="M175.211 31.4908C175.181 31.5104 175.148 31.5252 175.113 31.5344L162.169 35.0417L158.139 36.1329L146.678 39.2371C146.645 39.2451 146.612 39.2494 146.578 39.2499C146.555 39.2495 146.532 39.2478 146.509 39.2448L100.294 30.8001L100.141 30.7718C100.041 30.7531 99.9519 30.6953 99.8941 30.6111C99.8363 30.527 99.8141 30.4233 99.8324 30.3228C99.8507 30.2223 99.908 30.1332 99.9917 30.0749C100.075 30.0166 100.179 29.9939 100.279 30.0118L101.209 30.1813L146.562 38.4694L156.441 35.794L161.966 34.2971L174.711 30.8437L174.913 30.7898C175.001 30.7667 175.094 30.7751 175.176 30.8136C175.258 30.852 175.324 30.9181 175.362 31.0003C175.372 31.02 175.379 31.0406 175.385 31.0619C175.406 31.1427 175.4 31.2281 175.369 31.3054C175.338 31.3827 175.282 31.4478 175.211 31.4908Z" fill="#3F3D56"/>
<path d="M146.962 81.2294C146.861 81.2294 146.763 81.1893 146.691 81.1178C146.619 81.0464 146.579 80.9493 146.578 80.8478L146.193 38.8681C146.192 38.766 146.232 38.6677 146.303 38.5948C146.375 38.5219 146.472 38.4804 146.574 38.4795H146.578C146.679 38.4795 146.776 38.5196 146.848 38.5911C146.92 38.6625 146.961 38.7596 146.962 38.8611L147.346 80.8407C147.347 80.9429 147.307 81.0412 147.236 81.1141C147.165 81.187 147.067 81.2284 146.965 81.2294H146.962Z" fill="#3F3D56"/>
<path d="M162.169 76.1221L158.139 77.2133L156.441 35.7934L113.103 27.151C113.061 27.1435 113.019 27.1332 112.978 27.1202C112.645 27.0252 112.354 26.8197 112.153 26.5373L118.071 25.002L119.81 25.3486L160.931 33.5468C161.148 33.5896 161.352 33.6788 161.531 33.8082C161.709 33.9376 161.858 34.1042 161.966 34.2965C162.094 34.5199 162.166 75.8551 162.169 76.1221Z" fill="#3F3D56"/>
<path d="M160.363 52.5064C160.569 52.6831 160.761 52.8757 160.937 53.0826L185.077 50.257L187.425 44.8271L196.064 47.3073L192.84 57.3245C192.579 58.1338 192.064 58.8365 191.371 59.3272C190.678 59.8179 189.845 60.0702 188.997 60.046L161.358 59.2585C160.788 60.1361 159.965 60.8192 158.999 61.2168C158.033 61.6143 156.968 61.7076 155.948 61.4841C154.927 61.2606 153.999 60.731 153.286 59.9657C152.573 59.2005 152.109 58.2358 151.957 57.2C151.804 56.1642 151.97 55.1064 152.432 54.1672C152.893 53.2281 153.63 52.4522 154.542 51.9427C155.455 51.4331 156.501 51.2142 157.54 51.3149C158.58 51.4156 159.565 51.8312 160.363 52.5064Z" fill="#FFB6B6"/>
<path d="M184.512 49.0034C184.38 48.7143 184.313 48.4003 184.313 48.0826C184.314 47.765 184.384 47.4513 184.516 47.1629L189.155 37.0904C189.61 35.5307 190.664 34.2157 192.086 33.4339C193.507 32.652 195.18 32.467 196.738 32.9195C198.295 33.372 199.61 34.425 200.394 35.8476C201.178 37.2702 201.367 38.9463 200.919 40.5085L199.392 51.5322C199.348 51.8468 199.238 52.1482 199.067 52.4161C198.897 52.6839 198.671 52.9118 198.405 53.0842C198.139 53.2567 197.839 53.3696 197.525 53.4153C197.211 53.461 196.892 53.4384 196.587 53.3491L185.899 50.2096C185.595 50.1204 185.313 49.9665 185.074 49.7583C184.834 49.5502 184.643 49.2927 184.512 49.0034Z" fill="#3F3D56"/>
<path d="M265.488 209.878H0.511913C0.376397 209.877 0.246561 209.823 0.150874 209.727C0.055188 209.631 0.00146484 209.5 0.00146484 209.365C0.00146484 209.229 0.055188 209.099 0.150874 209.002C0.246561 208.906 0.376397 208.852 0.511913 208.852H265.488C265.624 208.852 265.754 208.906 265.85 209.002C265.946 209.098 266 209.229 266 209.365C266 209.501 265.946 209.631 265.85 209.727C265.754 209.824 265.624 209.878 265.488 209.878Z" fill="#CACACA"/>
<path d="M117.202 57.9597C117.154 57.9597 117.106 57.9543 117.06 57.9437L103.731 54.9273C103.565 54.8893 103.42 54.7867 103.329 54.6418C103.237 54.4969 103.207 54.3217 103.245 54.1546C103.282 53.9875 103.385 53.8422 103.529 53.7506C103.674 53.659 103.848 53.6286 104.015 53.666L117.344 56.6825C117.498 56.7176 117.635 56.8085 117.727 56.938C117.819 57.0675 117.86 57.2265 117.843 57.3845C117.825 57.5425 117.75 57.6886 117.632 57.7947C117.514 57.9008 117.361 57.9595 117.202 57.9597Z" fill="white"/>
<path d="M65.9064 179.366C65.8595 179.376 65.8117 179.381 65.7638 179.38L52.1017 179.149C51.9309 179.146 51.7683 179.075 51.6497 178.952C51.531 178.829 51.466 178.663 51.4688 178.492C51.4717 178.321 51.5422 178.158 51.6648 178.039C51.7875 177.92 51.9523 177.854 52.1231 177.857L65.7852 178.087C65.9439 178.09 66.0959 178.151 66.2124 178.259C66.3288 178.367 66.4015 178.514 66.4165 178.672C66.4314 178.831 66.3877 178.989 66.2936 179.117C66.1996 179.245 66.0617 179.334 65.9064 179.366Z" fill="#E6E6E6"/>
<path d="M70.6359 186.692C70.589 186.701 70.5412 186.706 70.4933 186.705L56.8312 186.474C56.6604 186.471 56.4978 186.4 56.3792 186.277C56.2605 186.154 56.1955 185.989 56.1983 185.817C56.2012 185.646 56.2717 185.483 56.3943 185.364C56.517 185.245 56.6818 185.179 56.8526 185.182L70.5147 185.412C70.6733 185.415 70.8254 185.476 70.9418 185.584C71.0583 185.692 71.131 185.839 71.1459 185.998C71.1609 186.156 71.1172 186.314 71.0231 186.442C70.929 186.57 70.7912 186.659 70.6359 186.692Z" fill="#E6E6E6"/>
</g>
<defs>
<clipPath id="clip0_578_4285">
<rect width="266" height="210" fill="white"/>
</clipPath>
</defs>
</svg>
