<svg width="252" height="210" viewBox="0 0 252 210" fill="none" xmlns="http://www.w3.org/2000/svg">
<g clip-path="url(#clip0_578_4366)">
<path d="M12.1288 200.108C15.6182 206.579 23.0239 209.357 23.0239 209.357C23.0239 209.357 24.7722 201.643 21.2828 195.172C17.7934 188.701 10.3877 185.923 10.3877 185.923C10.3877 185.923 8.63938 193.637 12.1288 200.108Z" fill="#2F2E41"/>
<path d="M14.527 197.979C20.8268 201.77 23.253 209.298 23.253 209.298C23.253 209.298 15.4653 210.681 9.1655 206.891C2.8657 203.101 0.439453 195.572 0.439453 195.572C0.439453 195.572 8.22719 194.189 14.527 197.979Z" fill="#4A6741"/>
<path d="M155.769 10.0811H116.463V10.6426H155.769V10.0811Z" fill="#F2F2F2"/>
<path d="M145.1 10.5029H144.539V15.697H145.1V10.5029Z" fill="#F2F2F2"/>
<path d="M127.974 10.5029H127.413V15.697H127.974V10.5029Z" fill="#F2F2F2"/>
<path d="M175.703 37.0342H136.397V37.5957H175.703V37.0342Z" fill="#F2F2F2"/>
<path d="M147.627 31.9805H147.065V37.1745H147.627V31.9805Z" fill="#F2F2F2"/>
<path d="M164.753 31.9805H164.192V37.1745H164.753V31.9805Z" fill="#F2F2F2"/>
<path d="M227.924 49.6689H188.618V50.2305H227.924V49.6689Z" fill="#F2F2F2"/>
<path d="M199.849 44.6152H199.287V49.8093H199.849V44.6152Z" fill="#F2F2F2"/>
<path d="M216.975 44.6152H216.413V49.8093H216.975V44.6152Z" fill="#F2F2F2"/>
<path d="M223.994 179.94H184.688V180.502H223.994V179.94Z" fill="#F2F2F2"/>
<path d="M195.918 174.887H195.356V180.081H195.918V174.887Z" fill="#F2F2F2"/>
<path d="M213.044 174.887H212.482V180.081H213.044V174.887Z" fill="#F2F2F2"/>
<path d="M156.892 89.8174H117.586V90.3789H156.892V89.8174Z" fill="#F2F2F2"/>
<path d="M128.816 84.7637H128.255V89.9577H128.816V84.7637Z" fill="#F2F2F2"/>
<path d="M145.942 84.7637H145.381V89.9577H145.942V84.7637Z" fill="#F2F2F2"/>
<path d="M169.246 157.48H129.939V158.042H169.246V157.48Z" fill="#F2F2F2"/>
<path d="M141.17 152.427H140.608V157.621H141.17V152.427Z" fill="#F2F2F2"/>
<path d="M158.296 152.427H157.734V157.621H158.296V152.427Z" fill="#F2F2F2"/>
<path d="M232.136 136.984H192.83V137.546H232.136V136.984Z" fill="#F2F2F2"/>
<path d="M204.06 131.931H203.498V137.125H204.06V131.931Z" fill="#F2F2F2"/>
<path d="M221.186 131.931H220.625V137.125H221.186V131.931Z" fill="#F2F2F2"/>
<path d="M102.091 197.145H35.6113V196.667H101.613V173.47H41.2001L38.2653 167.356L38.6966 167.149L41.5011 172.992H102.091V197.145Z" fill="#2F2E41"/>
<path d="M44.4594 208.862C47.2329 208.862 49.4812 206.614 49.4812 203.84C49.4812 201.067 47.2329 198.818 44.4594 198.818C41.6859 198.818 39.4375 201.067 39.4375 203.84C39.4375 206.614 41.6859 208.862 44.4594 208.862Z" fill="#3F3D56"/>
<path d="M93.9603 208.862C96.7338 208.862 98.9822 206.614 98.9822 203.84C98.9822 201.067 96.7338 198.818 93.9603 198.818C91.1868 198.818 88.9385 201.067 88.9385 203.84C88.9385 206.614 91.1868 208.862 93.9603 208.862Z" fill="#3F3D56"/>
<path d="M152.31 100.295C154.027 100.295 155.419 98.9029 155.419 97.1859C155.419 95.469 154.027 94.0771 152.31 94.0771C150.593 94.0771 149.201 95.469 149.201 97.1859C149.201 98.9029 150.593 100.295 152.31 100.295Z" fill="#3F3D56"/>
<path d="M109.202 165.579H34.478L18.3096 112.729H125.853L125.755 113.04L109.202 165.579ZM34.8318 165.1H108.851L125.201 113.208H18.956L34.8318 165.1Z" fill="#2F2E41"/>
<path d="M103.369 162.829H37.736L23.5347 115.958H117.994L117.908 116.234L103.369 162.829Z" fill="#F2F2F2"/>
<path d="M127.192 108.008L126.73 107.886L129.886 95.9902H148.245V96.4686H130.254L127.192 108.008Z" fill="#2F2E41"/>
<path d="M120.478 128.752H23.5342V129.23H120.478V128.752Z" fill="#2F2E41"/>
<path d="M114.927 146.372H28.9248V146.85H114.927V146.372Z" fill="#2F2E41"/>
<path d="M72.3186 112.969H71.8403V165.34H72.3186V112.969Z" fill="#2F2E41"/>
<path d="M93.7321 112.954L90.2988 165.323L90.7762 165.355L94.2094 112.985L93.7321 112.954Z" fill="#2F2E41"/>
<path d="M50.4373 112.953L49.96 112.984L53.3733 165.355L53.8506 165.324L50.4373 112.953Z" fill="#2F2E41"/>
<path d="M252 209.166H0.439453V209.728H252V209.166Z" fill="#2F2E41"/>
<path d="M167.606 17.372C167.606 17.372 171.711 29.0533 169.185 30.8505C166.659 32.6476 177.709 47.3241 177.709 47.3241L190.969 43.7299L183.708 31.4495C183.708 31.4495 182.761 19.1691 182.761 17.372C182.761 15.5748 167.606 17.372 167.606 17.372Z" fill="#A0616A"/>
<path opacity="0.1" d="M167.606 17.372C167.606 17.372 171.711 29.0533 169.185 30.8505C166.659 32.6476 177.709 47.3241 177.709 47.3241L190.969 43.7299L183.708 31.4495C183.708 31.4495 182.761 19.1691 182.761 17.372C182.761 15.5748 167.606 17.372 167.606 17.372Z" fill="black"/>
<path d="M160.718 100.64C160.718 100.64 159.519 115.616 160.718 123.403C161.916 131.191 163.713 152.757 163.713 152.757C163.713 152.757 163.713 193.492 170.302 194.091C176.892 194.69 181.684 195.289 182.283 192.892C182.882 190.496 179.288 189.298 181.085 188.1C182.882 186.902 183.481 182.709 181.085 177.916C178.689 173.124 181.085 124.602 181.085 124.602L192.467 155.153C192.467 155.153 193.665 180.313 194.863 183.907C196.061 187.501 193.665 194.091 197.858 194.69C202.052 195.289 206.844 191.694 209.24 190.496C211.636 189.298 205.646 189.298 206.844 188.699C208.042 188.1 211.636 186.303 210.438 185.704C209.24 185.105 208.042 156.351 208.042 156.351C208.042 156.351 204.747 94.9488 200.554 92.5527C196.361 90.1565 193.665 94.2838 193.665 94.2838L160.718 100.64Z" fill="#2F2E41"/>
<path d="M171.5 191.694V196.487C171.5 196.487 166.109 209.514 171.5 209.514C176.892 209.514 181.085 210.864 181.085 209.067V192.892L171.5 191.694Z" fill="#2F2E41"/>
<path d="M206.844 191.686V196.478C206.844 196.478 212.235 209.505 206.844 209.505C201.453 209.505 197.259 210.855 197.259 209.058V192.884L206.844 191.686Z" fill="#2F2E41"/>
<path d="M175.993 26.0587C181.948 26.0587 186.776 21.2311 186.776 15.2759C186.776 9.32078 181.948 4.49316 175.993 4.49316C170.038 4.49316 165.21 9.32078 165.21 15.2759C165.21 21.2311 170.038 26.0587 175.993 26.0587Z" fill="#A0616A"/>
<path d="M172.699 35.3438C172.699 35.3438 175.694 44.3294 180.486 42.5323L185.278 40.7351L193.665 98.2433C193.665 98.2433 187.076 107.828 177.491 101.838C167.906 95.8472 172.699 35.3438 172.699 35.3438Z" fill="#4A6741"/>
<path d="M181.085 33.5464L183.781 27.8555C183.781 27.8555 199.655 35.3435 202.051 37.7397C204.448 40.1359 204.448 43.7301 204.448 43.7301L200.254 58.7062C200.254 58.7062 201.452 91.6536 201.452 92.8517C201.452 94.0498 205.646 100.639 202.651 98.2431C199.655 95.8469 199.056 93.4508 196.66 97.045C194.264 100.639 188.873 104.833 188.873 104.833L181.085 33.5464Z" fill="#3F3D56"/>
<path d="M202.052 76.6777L200.255 93.451C200.255 93.451 189.472 103.036 191.868 103.635C194.264 104.234 195.462 101.838 195.462 101.838C195.462 101.838 199.656 106.031 202.052 103.635C204.448 101.239 210.438 78.4749 210.438 78.4749L202.052 76.6777Z" fill="#A0616A"/>
<path d="M176.223 0.0364625C173.832 -0.0489922 171.274 -0.0912636 169.259 1.1969C168.331 1.84337 167.518 2.63957 166.852 3.5529C164.889 6.03438 163.193 9.15665 163.922 12.2355L164.769 11.9052C164.769 12.727 164.586 13.5386 164.234 14.2812C164.353 13.9344 164.753 14.495 164.646 14.8457L163.713 17.9062C165.246 17.344 167.154 18.4823 167.388 20.0988C167.494 16.5441 167.863 12.4679 170.747 10.3864C172.201 9.33677 174.041 9.01633 175.812 8.73178C177.445 8.46927 179.158 8.21895 180.723 8.75673C182.287 9.29451 183.62 10.8947 183.265 12.5107C183.986 12.2622 184.793 12.765 185.15 13.4397C185.506 14.1143 185.525 14.9101 185.536 15.6731C186.305 16.2166 187.18 15.1374 187.493 14.2493C188.229 12.1649 188.883 9.94604 188.487 7.77139C188.09 5.59673 186.318 3.51852 184.108 3.51115C184.376 3.21644 184.519 2.82893 184.507 2.43058L182.685 2.27663C183.148 2.21114 183.573 1.98688 183.888 1.64225C183.157 2.44716 177.406 0.0787477 176.223 0.0364625Z" fill="#2F2E41"/>
<path d="M175.694 31.749C175.694 31.749 170.817 26.9702 169.062 27.2629C167.307 27.5556 164.911 31.749 164.911 31.749C164.911 31.749 150.534 36.5413 151.133 41.3337C151.732 46.126 158.321 69.4887 158.321 69.4887C158.321 69.4887 163.713 97.6438 158.921 100.639C154.128 103.634 181.684 111.422 182.283 107.827C182.882 104.233 184.08 68.2906 182.283 62.8992C180.486 57.5078 175.694 31.749 175.694 31.749Z" fill="#3F3D56"/>
<path d="M196.66 41.334H204.067C204.067 41.334 209.24 64.0976 209.839 66.4938C210.438 68.89 211.636 80.2718 211.037 80.2718C210.438 80.2718 198.457 77.8756 198.457 79.6728L196.66 41.334Z" fill="#3F3D56"/>
<path d="M196.409 97.7043H168.053C165.285 84.9747 165.054 72.6756 168.053 60.9248H196.409C191.833 72.4642 191.547 84.679 196.409 97.7043Z" fill="#F2F2F2"/>
<path d="M156.524 82.0691L164.911 85.6634C164.911 85.6634 181.085 88.0596 181.085 81.4701C181.085 74.8806 164.911 78.4749 164.911 78.4749L159.519 76.751L156.524 82.0691Z" fill="#A0616A"/>
<path d="M158.322 37.7402L151.133 39.5374L145.742 71.2867C145.742 71.2867 143.945 79.6733 146.94 80.2723C149.935 80.8714 158.322 85.6637 158.322 85.6637C158.322 85.6637 159.52 76.6781 161.916 76.6781L155.925 71.8857L159.52 50.9192L158.322 37.7402Z" fill="#3F3D56"/>
<path d="M56.6613 99.082H17.355V99.6436H56.6613V99.082Z" fill="#F2F2F2"/>
<path d="M28.585 94.0283H28.0234V99.2224H28.585V94.0283Z" fill="#F2F2F2"/>
<path d="M45.7114 94.0283H45.1499V99.2224H45.7114V94.0283Z" fill="#F2F2F2"/>
<path d="M70.4181 15.9775H31.1118V16.5391H70.4181V15.9775Z" fill="#F2F2F2"/>
<path d="M59.7495 16.3984H59.188V21.5925H59.7495V16.3984Z" fill="#F2F2F2"/>
<path d="M42.623 16.3984H42.0615V21.5925H42.623V16.3984Z" fill="#F2F2F2"/>
<path d="M110.006 71.2871H70.6992V71.8486H110.006V71.2871Z" fill="#F2F2F2"/>
<path d="M99.3364 71.708H98.7749V76.9021H99.3364V71.708Z" fill="#F2F2F2"/>
<path d="M82.2104 71.708H81.6489V76.9021H82.2104V71.708Z" fill="#F2F2F2"/>
<path d="M43.1847 71.0059H3.87842V71.5674H43.1847V71.0059Z" fill="#F2F2F2"/>
<path d="M32.5156 71.4277H31.9541V76.6218H32.5156V71.4277Z" fill="#F2F2F2"/>
<path d="M15.3896 71.4277H14.8281V76.6218H15.3896V71.4277Z" fill="#F2F2F2"/>
<path d="M90.3522 42.9307H51.0459V43.4922H90.3522V42.9307Z" fill="#F2F2F2"/>
<path d="M62.2764 37.877H61.7148V43.071H62.2764V37.877Z" fill="#F2F2F2"/>
<path d="M79.4028 37.877H78.8413V43.071H79.4028V37.877Z" fill="#F2F2F2"/>
</g>
<defs>
<clipPath id="clip0_578_4366">
<rect width="251.56" height="210" fill="white" transform="translate(0.439453)"/>
</clipPath>
</defs>
</svg>
